<?xml version="1.0" encoding="UTF-8"?>
<svg id="Layer_2" xmlns="http://www.w3.org/2000/svg" viewBox="0 0 342.02 76.34">
  <defs>
    <style>
      .cls-1 {
        fill: #fff;
      }
    </style>
  </defs>
  <g id="Layer_1-2" data-name="Layer_1">
    <g>
      <g>
        <path class="cls-1" d="M7.62,36.85c1.11-.28,1.59-.95,1.59-4.61V10.01h-2.74c-3.57,0-4.92.95-6.11,3.49l-.36-.08.24-3.93h20.13l.24,3.93-.36.08c-1.19-2.54-2.54-3.49-6.11-3.49h-2.66v22.23c0,3.65.48,4.33,1.59,4.61v.44h-5.44v-.44Z"/>
        <path class="cls-1" d="M26.68,36.85c1.11-.28,1.59-.95,1.59-4.61V14.53c0-3.65-.48-4.33-1.59-4.61v-.44h5.4v.44c-1.11.28-1.59.95-1.59,4.61v7.74h16.52v-7.74c0-3.65-.48-4.33-1.59-4.61v-.44h5.4v.44c-1.11.28-1.59.95-1.59,4.61v17.71c0,3.65.48,4.33,1.59,4.61v.44h-5.4v-.44c1.11-.28,1.59-.95,1.59-4.61v-9.41h-16.52v9.41c0,3.65.48,4.33,1.59,4.61v.44h-5.4v-.44Z"/>
        <path class="cls-1" d="M58.24,37.28v-.44c1.11-.28,1.59-.95,1.59-4.61V14.53c0-3.65-.48-4.33-1.59-4.61v-.44h17.83l.48,4.72-.36.08c-1.23-3.1-3.41-4.29-6.99-4.29h-7.15v12.23h6.51c4.13,0,5-.91,5.32-2.38h.44v5.28h-.44c-.32-1.47-1.19-2.38-5.32-2.38h-6.51v12.43c0,1.03.56,1.59,1.59,1.59h6.63c3.57,0,5.68-.95,6.99-4.29l.36.08-.36,4.72h-19.02Z"/>
        <path class="cls-1" d="M96.03,23.9c0-8.38,5.92-14.69,13.94-14.69,4.69,0,8.14,1.55,9.13,2.18l.16,4.09-.32.08c-1.31-2.74-4.41-5.68-9.77-5.68-6.27,0-10.92,4.37-11,11.83-.08,7.5,4.8,15.33,13.22,15.33,3.45,0,6.43-2.14,7.42-4.13l-.08-4.57c-.04-1.75-.28-2.54-2.02-2.9v-.44h4.17v7.62c-1.55,2.5-5.84,5.04-10.6,5.04-8.62,0-14.25-5.4-14.25-13.78Z"/>
        <path class="cls-1" d="M143.63,31.65c-2.22-5.12-2.7-8.81-8.85-8.81h-2.74v9.41c0,3.65.48,4.33,1.59,4.61v.44h-5.4v-.44c1.11-.28,1.59-.95,1.59-4.61V14.53c0-3.65-.48-4.33-1.59-4.61v-.44h7.31c7.38,0,10.4,2.18,10.4,6.04s-2.9,6.71-7.98,7.23c5.32.75,5.96,3.81,7.7,8.26,1.67,4.21,2.82,5.96,4.09,5.96.24,0,.44-.04.67-.08v.4c-.28.12-1.07.28-1.95.28-2.86,0-3.3-2.34-4.84-5.92ZM143.47,16.4c0-3.89-2.54-6.39-9.45-6.39-.64,0-1.27.04-1.99.08v12.19h4.21c4.61,0,7.23-2.14,7.23-5.88Z"/>
        <path class="cls-1" d="M153.12,23.43c0-8.42,5.6-14.25,14.02-14.25,6.71,0,13.98,4.61,13.98,14.33s-7.31,14.17-13.98,14.17-14.02-4.53-14.02-14.25ZM179,25.57c0-8.1-5.6-15.64-13.02-15.64-6.71,0-10.72,4.8-10.72,11.35,0,8.02,5.44,15.64,12.9,15.64,6.67,0,10.84-4.61,10.84-11.35Z"/>
        <path class="cls-1" d="M183.68,9.93v-.44h5v.44c-1.11.28-1.07.87.24,4.25l8.14,20.76,7.94-20.73c.95-2.54.91-4.01-.48-4.29v-.44h4.33v.44c-.99.28-1.95.87-3.26,4.29l-9.01,23.47h-.71l-9.25-23.5c-1.31-3.37-2.14-3.97-2.94-4.25Z"/>
        <path class="cls-1" d="M213.78,37.28v-.44c1.11-.28,1.59-.95,1.59-4.61V14.53c0-3.65-.48-4.33-1.59-4.61v-.44h17.83l.48,4.72-.36.08c-1.23-3.1-3.41-4.29-6.99-4.29h-7.15v12.23h6.51c4.13,0,5-.91,5.32-2.38h.44v5.28h-.44c-.32-1.47-1.19-2.38-5.32-2.38h-6.51v12.43c0,1.03.56,1.59,1.59,1.59h6.63c3.57,0,5.68-.95,6.99-4.29l.36.08-.36,4.72h-19.02Z"/>
      </g>
      <g>
        <path class="cls-1" d="M76.15,67.26l-.12-3.42.27-.05c.96,2.58,2.83,4.77,6.25,4.77,1.97,0,3.67-1.28,3.67-3.27,0-2.46-3.03-3.59-5.09-4.43-2.9-1.16-4.75-2.19-4.75-4.8,0-2.88,2.39-4.7,6.01-4.7,2.24,0,3.84.62,4.8,1.13l.1,2.85-.25.07c-.91-2.14-2.63-3.67-5.44-3.67-1.99,0-3.69,1.16-3.69,3.25,0,2.31,2.54,3.25,4.63,4.11,2.73,1.08,5.29,2.17,5.29,4.95,0,3.08-2.85,4.95-5.76,4.95-2.58,0-4.75-.91-5.91-1.75Z"/>
        <path class="cls-1" d="M89.91,68.44c.69-.22,1.3-.71,2.07-2.58l4.85-12.01c.17-.44.15-.76-.05-1.16l-.22-.52,1.85-.84,6.05,14.55c.76,1.85,1.35,2.34,1.87,2.56v.32h-3.81v-.32c.76-.22.57-.71-.22-2.56l-1.5-3.62h-6.94l-1.45,3.59c-.64,1.6-.54,2.41.3,2.58v.32h-2.78v-.32ZM100.64,61.9l-3.37-8.1-3.27,8.1h6.65Z"/>
        <path class="cls-1" d="M109.32,68.77v-.32c.74-.22.98-.79.98-2.81v-10.98c0-2.02-.25-2.58-.98-2.81v-.32h3.99v.32c-.76.22-.98.79-.98,2.81v12.6c0,.71.39,1.11,1.11,1.11h2.93c2.36,0,3.45-.59,4.31-2.44l.27.05-.17,2.78h-11.44Z"/>
        <path class="cls-1" d="M122.22,60.13c0-5.05,3.54-8.79,8.76-8.79,4.16,0,8.71,2.86,8.71,8.89s-4.58,8.79-8.71,8.79-8.76-2.78-8.76-8.88ZM137.78,61.85c-.17-5.14-3.4-9.94-7.8-9.94-3.74,0-5.93,2.78-5.78,6.79.17,4.95,3.42,9.7,7.83,9.7,3.94,0,5.88-2.86,5.76-6.55Z"/>
        <path class="cls-1" d="M145.06,53.87v10.78c0,2.81.59,3.5,1.7,3.79v.32h-3.08v-.32c.74-.22.98-.79.98-2.81v-10.98c0-2.02-.3-2.58-1.28-2.81v-.32h2.41l10.76,13.93v-9.82c0-2.81-.59-3.5-1.7-3.79v-.32h3.1v.32c-.76.22-.98.79-.98,2.81v14.3h-.32l-11.59-15.09Z"/>
      </g>
      <rect class="cls-1" x="254.93" width="1" height="76.34"/>
      <g>
        <path class="cls-1" d="M290.42,37.24c0-4.8-3.02-5.72-5.36-5.72-1.15,0-2.1.28-2.86.64l-.16-.36c4.13-1.83,6.15-3.89,6.15-7.03,0-2.58-1.79-4.13-4.45-4.13-1.99,0-3.85.79-5.56,2.38l-.32-.32c2.1-2.18,4.45-3.49,7.27-3.49,3.41,0,5.4,2.26,5.4,4.72,0,3.45-2.62,5.24-6.27,7.19.64-.2,1.35-.36,2.22-.36,2.5,0,6.39,1.31,6.39,5.8,0,6.67-6.79,11.83-14.93,16.12l-.24-.48c7.38-3.73,12.71-9.49,12.71-14.97Z"/>
        <path class="cls-1" d="M296.69,33.35c0-8.42,5.36-14.13,11.59-14.13,5.76,0,12.07,4.8,12.07,14.33,0,8.42-5.36,14.13-11.59,14.13-5.76,0-12.07-4.8-12.07-14.33ZM318.09,35.93c.08-8.22-4.45-15.96-10.76-15.96-5.8,0-8.3,4.84-8.38,11-.08,8.22,4.45,15.96,10.96,15.96,5.6,0,8.1-4.84,8.18-11Z"/>
        <path class="cls-1" d="M338.37,46.49v-7.58c-1.35,5.16-5.16,8.78-8.89,8.78-2.98,0-5.76-1.71-5.76-5.2,0-4.17,4.17-5.68,8.74-6.87l5.88-1.55c-.24-3.85-2.1-5.88-5.92-5.88-2.54,0-5,1.27-6.91,3.73l-.36-.28c2.3-2.94,5.04-4.49,8.34-4.49,4.8,0,6.95,2.74,6.95,6.83v8.26c0,3.65.48,4.33,1.59,4.61v.44h-2.86c-.52,0-.79-.28-.79-.79ZM330.39,45.93c4.64,0,7.94-5.24,7.98-10.01v-1.39l-5.76,1.51c-4.17,1.11-6.75,2.42-6.71,5.64.04,2.54,1.75,4.25,4.49,4.25Z"/>
      </g>
    </g>
  </g>
</svg>